<?xml version="1.0" encoding="utf-8"?>
<!-- Generator: Adobe Illustrator 23.0.1, SVG Export Plug-In . SVG Version: 6.00 Build 0)  -->
<svg version="1.1" id="Layer_1" xmlns="http://www.w3.org/2000/svg" xmlns:xlink="http://www.w3.org/1999/xlink" x="0px" y="0px"
	 viewBox="0 0 1000 1000" style="enable-background:new 0 0 1000 1000;" xml:space="preserve">
<style type="text/css">
	.st0{fill:#234049;}
	.st1{fill:#24B9E1;}
</style>
<g>
	<g>
		<g>
			<path class="st0" d="M134,844.4L84.9,727.8c-0.3-0.9-0.9-2-0.9-4c0-5.2,4-9.2,9.2-9.2s7.5,3.2,8.7,6.1l40.7,99.6l40.7-99.6
				c1.2-2.9,3.5-6.1,8.7-6.1s9.2,4,9.2,9.2c0,2-0.6,3.2-0.9,4l-49.1,116.7c-1.7,3.8-4.9,5.8-8.7,5.8
				C138.9,850.2,135.7,848.2,134,844.4z"/>
			<path class="st0" d="M351.7,782c0,47.4-23.1,69.6-60.6,69.6c-37.3,0-60.6-22.2-60.6-69.6s23.4-69.3,60.6-69.3
				C328.6,712.7,351.7,734.7,351.7,782z M332.9,782c0-36.4-15.3-52.6-41.9-52.6s-41.9,16.2-41.9,52.6c0,37,15.3,52.8,41.9,52.8
				S332.9,819,332.9,782z"/>
			<path class="st0" d="M445.9,712.7c25.7,0,39.9,13.6,44.5,19.9c1.4,2,2,3.5,2,5.5c0,4.9-3.8,8.4-8.4,8.4c-2.9,0-4.9-1.2-6.9-3.5
				c-4.3-4.9-12.1-13.6-31.2-13.6c-26.6,0-40.7,17-40.7,52.6c0,36.1,14.2,52.8,40.7,52.8c16.7,0,26.9-7.5,33.5-12.4
				c2-1.4,3.5-2,5.5-2c4.6,0,8.4,3.8,8.4,8.4c0,2.6-0.9,4.6-3.8,7.2c-6.4,5.2-20.2,15.6-43.6,15.6c-37.3,0-59.5-22.2-59.5-69.6
				S408.6,712.7,445.9,712.7z"/>
			<path class="st0" d="M551.5,744.8c-2.9,3.2-4.9,4-7.5,4c-4.6,0-8.4-3.8-8.4-8.4c0-2,0.6-3.5,1.4-4.9
				c8.1-12.7,23.7-22.8,47.9-22.8c33.5,0,52,19.6,52,49.1v79.4c0,4.9-4,9-9,9c-4.9,0-9-4-9-9v-10.4c-7.2,13.6-24,20.8-41.3,20.8
				c-30.6,0-50-14.7-50-41.3c0-25.4,19.3-40.7,50.5-40.7h40.7v-7.8c0-19.6-13-31.8-34.1-31.8C569.7,730.1,560.5,734.7,551.5,744.8z
				 M619.1,797.9v-12.1h-40.7c-18.8,0-31.8,7.8-31.8,24.5c0,15,10.4,24.5,32.9,24.5C599.8,834.9,619.1,822.5,619.1,797.9z"/>
			<path class="st0" d="M676.9,836.6c0-9.5,5.2-13.9,13.6-13.9s13.6,4.3,13.6,13.9c0,9.5-5.2,13.6-13.6,13.6
				S676.9,846.2,676.9,836.6z"/>
			<path class="st0" d="M761.5,744.8c-2.9,3.2-4.9,4-7.5,4c-4.6,0-8.4-3.8-8.4-8.4c0-2,0.6-3.5,1.4-4.9
				c8.1-12.7,23.7-22.8,47.9-22.8c33.5,0,52,19.6,52,49.1v79.4c0,4.9-4,9-9,9c-4.9,0-9-4-9-9v-10.4c-7.2,13.6-24,20.8-41.3,20.8
				c-30.6,0-50-14.7-50-41.3c0-25.4,19.3-40.7,50.5-40.7h40.7v-7.8c0-19.6-13-31.8-34.1-31.8C779.7,730.1,770.4,734.7,761.5,744.8z
				 M829.1,797.9v-12.1h-40.7c-18.8,0-31.8,7.8-31.8,24.5c0,15,10.4,24.5,32.9,24.5C809.7,834.9,829.1,822.5,829.1,797.9z"/>
			<path class="st0" d="M894.1,676.3c0-8.4,4-11.6,11-11.6c6.9,0,11,3.2,11,11.6c0,6.9-4,11-11,11
				C898.1,687.3,894.1,683.3,894.1,676.3z M914.3,841c0,5.2-4,9.2-9.2,9.2s-9.2-4-9.2-9.2V723.7c0-5.2,4-9.2,9.2-9.2s9.2,4,9.2,9.2
				V841z"/>
		</g>
	</g>
	<g>
		<path class="st1" d="M257.8,559.9c-10,0-18.2-8.1-18.2-18.2V271c0-10,8.1-18.2,18.2-18.2c10,0,18.2,8.1,18.2,18.2v270.8
			C276,551.8,267.8,559.9,257.8,559.9z"/>
		<path class="st1" d="M338.5,636.3c-10,0-18.2-8.1-18.2-18.2V190.5c0-10,8.1-18.2,18.2-18.2c10,0,18.2,8.1,18.2,18.2v427.6
			C356.7,628.1,348.6,636.3,338.5,636.3z"/>
		<path class="st1" d="M419.3,615.5c-10,0-18.2-8.1-18.2-18.2V228c0-10,8.1-18.2,18.2-18.2c10,0,18.2,8.1,18.2,18.2v369.3
			C437.4,607.3,429.3,615.5,419.3,615.5z"/>
		<path class="st1" d="M500,660.3c-10,0-18.2-8.1-18.2-18.2V166.5c0-10,8.1-18.2,18.2-18.2c10,0,18.2,8.1,18.2,18.2v475.6
			C518.2,652.1,510,660.3,500,660.3z"/>
		<path class="st1" d="M580.7,602.5c-10,0-18.2-8.1-18.2-18.2V247.6c0-10,8.1-18.2,18.2-18.2s18.2,8.1,18.2,18.2v336.7
			C598.9,594.3,590.8,602.5,580.7,602.5z"/>
		<path class="st1" d="M661.5,636.3c-10,0-18.2-8.1-18.2-18.2V190.5c0-10,8.1-18.2,18.2-18.2s18.2,8.1,18.2,18.2v427.6
			C679.7,628.1,671.5,636.3,661.5,636.3z"/>
		<path class="st1" d="M742.2,559.9c-10,0-18.2-8.1-18.2-18.2V271c0-10,8.1-18.2,18.2-18.2c10,0,18.2,8.1,18.2,18.2v270.8
			C760.4,551.8,752.3,559.9,742.2,559.9z"/>
	</g>
</g>
<g>
	<g>
		<path class="st1" d="M137.6,1158.9c-3.2,0-5.7-2.6-5.7-5.7v-85.5c0-3.2,2.6-5.7,5.7-5.7s5.7,2.6,5.7,5.7v85.5
			C143.4,1156.3,140.8,1158.9,137.6,1158.9z"/>
		<path class="st1" d="M163.1,1183c-3.2,0-5.7-2.6-5.7-5.7v-135c0-3.2,2.6-5.7,5.7-5.7s5.7,2.6,5.7,5.7v135
			C168.9,1180.4,166.3,1183,163.1,1183z"/>
		<path class="st1" d="M188.6,1176.4c-3.2,0-5.7-2.6-5.7-5.7v-116.6c0-3.2,2.6-5.7,5.7-5.7s5.7,2.6,5.7,5.7v116.6
			C194.4,1173.9,191.8,1176.4,188.6,1176.4z"/>
		<path class="st1" d="M214.1,1190.6c-3.2,0-5.7-2.6-5.7-5.7v-150.2c0-3.2,2.6-5.7,5.7-5.7s5.7,2.6,5.7,5.7v150.2
			C219.9,1188,217.3,1190.6,214.1,1190.6z"/>
		<path class="st1" d="M239.6,1172.3c-3.2,0-5.7-2.6-5.7-5.7v-106.3c0-3.2,2.6-5.7,5.7-5.7s5.7,2.6,5.7,5.7v106.3
			C245.4,1169.8,242.8,1172.3,239.6,1172.3z"/>
		<path class="st1" d="M265.1,1183c-3.2,0-5.7-2.6-5.7-5.7v-135c0-3.2,2.6-5.7,5.7-5.7s5.7,2.6,5.7,5.7v135
			C270.9,1180.4,268.3,1183,265.1,1183z"/>
		<path class="st1" d="M290.6,1158.9c-3.2,0-5.7-2.6-5.7-5.7v-85.5c0-3.2,2.6-5.7,5.7-5.7s5.7,2.6,5.7,5.7v85.5
			C296.4,1156.3,293.8,1158.9,290.6,1158.9z"/>
	</g>
	<g>
		<path class="st0" d="M378,1160.1l-36.2-86.1c-0.2-0.6-0.6-1.5-0.6-3c0-3.8,3-6.8,6.8-6.8s5.5,2.3,6.4,4.5l30,73.5l30-73.5
			c0.9-2.1,2.6-4.5,6.4-4.5s6.8,3,6.8,6.8c0,1.5-0.4,2.3-0.6,3l-36.2,86.1c-1.3,2.8-3.6,4.3-6.4,4.3
			C381.7,1164.3,379.3,1162.9,378,1160.1z"/>
		<path class="st0" d="M538.7,1114.1c0,34.9-17,51.3-44.7,51.3c-27.5,0-44.7-16.4-44.7-51.3s17.3-51.1,44.7-51.1
			C521.6,1062.9,538.7,1079.1,538.7,1114.1z M524.8,1114.1c0-26.8-11.3-38.8-30.9-38.8c-19.6,0-30.9,11.9-30.9,38.8
			c0,27.3,11.3,39,30.9,39C513.5,1153.1,524.8,1141.3,524.8,1114.1z"/>
		<path class="st0" d="M608.1,1062.9c19,0,29.4,10,32.8,14.7c1.1,1.5,1.5,2.6,1.5,4c0,3.6-2.8,6.2-6.2,6.2c-2.1,0-3.6-0.9-5.1-2.6
			c-3.2-3.6-8.9-10-23-10c-19.6,0-30,12.6-30,38.8c0,26.6,10.4,39,30,39c12.4,0,19.8-5.5,24.7-9.2c1.5-1.1,2.6-1.5,4-1.5
			c3.4,0,6.2,2.8,6.2,6.2c0,1.9-0.6,3.4-2.8,5.3c-4.7,3.8-14.9,11.5-32.2,11.5c-27.5,0-43.9-16.4-43.9-51.3
			S580.6,1062.9,608.1,1062.9z"/>
		<path class="st0" d="M686.1,1086.6c-2.1,2.3-3.6,3-5.5,3c-3.4,0-6.2-2.8-6.2-6.2c0-1.5,0.4-2.6,1.1-3.6c6-9.4,17.5-16.8,35.4-16.8
			c24.7,0,38.3,14.5,38.3,36.2v58.6c0,3.6-3,6.6-6.6,6.6c-3.6,0-6.6-3-6.6-6.6v-7.7c-5.3,10-17.7,15.3-30.5,15.3
			c-22.6,0-36.9-10.9-36.9-30.5c0-18.7,14.3-30,37.3-30h30v-5.8c0-14.5-9.6-23.4-25.1-23.4C699.5,1075.7,692.7,1079.1,686.1,1086.6z
			 M735.9,1125.8v-8.9h-30c-13.8,0-23.4,5.8-23.4,18.1c0,11.1,7.7,18.1,24.3,18.1C721.6,1153.1,735.9,1143.9,735.9,1125.8z"/>
		<path class="st0" d="M778.5,1154.3c0-7,3.8-10.2,10-10.2s10,3.2,10,10.2c0,7-3.8,10-10,10S778.5,1161.4,778.5,1154.3z"/>
		<path class="st0" d="M840.9,1086.6c-2.1,2.3-3.6,3-5.5,3c-3.4,0-6.2-2.8-6.2-6.2c0-1.5,0.4-2.6,1.1-3.6c6-9.4,17.5-16.8,35.4-16.8
			c24.7,0,38.3,14.5,38.3,36.2v58.6c0,3.6-3,6.6-6.6,6.6c-3.6,0-6.6-3-6.6-6.6v-7.7c-5.3,10-17.7,15.3-30.5,15.3
			c-22.6,0-36.9-10.9-36.9-30.5c0-18.7,14.3-30,37.3-30h30v-5.8c0-14.5-9.6-23.4-25.1-23.4C854.4,1075.7,847.5,1079.1,840.9,1086.6z
			 M890.8,1125.8v-8.9h-30c-13.8,0-23.4,5.8-23.4,18.1c0,11.1,7.7,18.1,24.3,18.1C876.5,1153.1,890.8,1143.9,890.8,1125.8z"/>
		<path class="st0" d="M938.7,1036.1c0-6.2,3-8.5,8.1-8.5s8.1,2.3,8.1,8.5c0,5.1-3,8.1-8.1,8.1S938.7,1041.2,938.7,1036.1z
			 M953.6,1157.5c0,3.8-3,6.8-6.8,6.8c-3.8,0-6.8-3-6.8-6.8V1071c0-3.8,3-6.8,6.8-6.8c3.8,0,6.8,3,6.8,6.8V1157.5z"/>
	</g>
</g>
</svg>
