<svg width="832" height="170" xmlns="http://www.w3.org/2000/svg">
 <style type="text/css">.st0{fill:#234049;}
	.st1{fill:#24B9E1;}</style>

 <g>
  <title>background</title>
  <rect fill="none" id="canvas_background" height="172" width="834" y="-1" x="-1"/>
 </g>
 <g>
  <title>Layer 1</title>
  <g id="svg_19">
   <g id="svg_20">
    <path id="svg_21" d="m11.00465,135.304247c-3.2,0 -5.7,-2.6 -5.7,-5.7l0,-85.5c0,-3.2 2.6,-5.7 5.7,-5.7s5.7,2.6 5.7,5.7l0,85.5c0.1,3.1 -2.5,5.7 -5.7,5.7z" class="st1"/>
    <path id="svg_22" d="m36.50465,159.404247c-3.2,0 -5.7,-2.6 -5.7,-5.7l0,-135c0,-3.2 2.6,-5.7 5.7,-5.7s5.7,2.6 5.7,5.7l0,135c0.1,3.1 -2.5,5.7 -5.7,5.7z" class="st1"/>
    <path id="svg_23" d="m62.00465,152.804247c-3.2,0 -5.7,-2.6 -5.7,-5.7l0,-116.6c0,-3.2 2.6,-5.7 5.7,-5.7s5.7,2.6 5.7,5.7l0,116.6c0.1,3.2 -2.5,5.7 -5.7,5.7z" class="st1"/>
    <path id="svg_24" d="m87.50465,167.004247c-3.2,0 -5.7,-2.6 -5.7,-5.7l0,-150.2c0,-3.2 2.6,-5.7 5.7,-5.7s5.7,2.6 5.7,5.7l0,150.2c0.1,3.1 -2.5,5.7 -5.7,5.7z" class="st1"/>
    <path id="svg_25" d="m113.00465,148.704247c-3.2,0 -5.7,-2.6 -5.7,-5.7l0,-106.3c0,-3.2 2.6,-5.7 5.7,-5.7s5.7,2.6 5.7,5.7l0,106.3c0.1,3.2 -2.5,5.7 -5.7,5.7z" class="st1"/>
    <path id="svg_26" d="m138.50465,159.404247c-3.2,0 -5.7,-2.6 -5.7,-5.7l0,-135c0,-3.2 2.6,-5.7 5.7,-5.7s5.7,2.6 5.7,5.7l0,135c0.1,3.1 -2.5,5.7 -5.7,5.7z" class="st1"/>
    <path id="svg_27" d="m164.00465,135.304247c-3.2,0 -5.7,-2.6 -5.7,-5.7l0,-85.5c0,-3.2 2.6,-5.7 5.7,-5.7s5.7,2.6 5.7,5.7l0,85.5c0.1,3.1 -2.5,5.7 -5.7,5.7z" class="st1"/>
   </g>
   <g id="svg_28">
    <path id="svg_29" d="m251.40465,136.504247l-36.2,-86.1c-0.2,-0.6 -0.6,-1.5 -0.6,-3c0,-3.8 3,-6.8 6.8,-6.8s5.5,2.3 6.4,4.5l30,73.5l30,-73.5c0.9,-2.1 2.6,-4.5 6.4,-4.5s6.8,3 6.8,6.8c0,1.5 -0.4,2.3 -0.6,3l-36.2,86.1c-1.3,2.8 -3.6,4.3 -6.4,4.3c-2.7,-0.1 -5.1,-1.5 -6.4,-4.3z" class="st0"/>
    <path id="svg_30" d="m412.10465,90.504247c0,34.9 -17,51.3 -44.7,51.3c-27.5,0 -44.7,-16.4 -44.7,-51.3s17.3,-51.1 44.7,-51.1c27.6,-0.1 44.7,16.1 44.7,51.1zm-13.9,0c0,-26.8 -11.3,-38.8 -30.9,-38.8c-19.6,0 -30.9,11.9 -30.9,38.8c0,27.3 11.3,39 30.9,39c19.6,0 30.9,-11.8 30.9,-39z" class="st0"/>
    <path id="svg_31" d="m481.50465,39.304247c19,0 29.4,10 32.8,14.7c1.1,1.5 1.5,2.6 1.5,4c0,3.6 -2.8,6.2 -6.2,6.2c-2.1,0 -3.6,-0.9 -5.1,-2.6c-3.2,-3.6 -8.9,-10 -23,-10c-19.6,0 -30,12.6 -30,38.8c0,26.6 10.4,39 30,39c12.4,0 19.8,-5.5 24.7,-9.2c1.5,-1.1 2.6,-1.5 4,-1.5c3.4,0 6.2,2.8 6.2,6.2c0,1.9 -0.6,3.4 -2.8,5.3c-4.7,3.8 -14.9,11.5 -32.2,11.5c-27.5,0 -43.9,-16.4 -43.9,-51.3s16.5,-51.1 44,-51.1z" class="st0"/>
    <path id="svg_32" d="m559.50465,63.004247c-2.1,2.3 -3.6,3 -5.5,3c-3.4,0 -6.2,-2.8 -6.2,-6.2c0,-1.5 0.4,-2.6 1.1,-3.6c6,-9.4 17.5,-16.8 35.4,-16.8c24.7,0 38.3,14.5 38.3,36.2l0,58.6c0,3.6 -3,6.6 -6.6,6.6c-3.6,0 -6.6,-3 -6.6,-6.6l0,-7.7c-5.3,10 -17.7,15.3 -30.5,15.3c-22.6,0 -36.9,-10.9 -36.9,-30.5c0,-18.7 14.3,-30 37.3,-30l30,0l0,-5.8c0,-14.5 -9.6,-23.4 -25.1,-23.4c-11.3,0 -18.1,3.4 -24.7,10.9zm49.8,39.2l0,-8.9l-30,0c-13.8,0 -23.4,5.8 -23.4,18.1c0,11.1 7.7,18.1 24.3,18.1c14.8,0 29.1,-9.2 29.1,-27.3z" class="st0"/>
    <path id="svg_33" d="m651.90465,130.704247c0,-7 3.8,-10.2 10,-10.2s10,3.2 10,10.2c0,7 -3.8,10 -10,10s-10,-2.9 -10,-10z" class="st0"/>
    <path id="svg_34" d="m714.30465,63.004247c-2.1,2.3 -3.6,3 -5.5,3c-3.4,0 -6.2,-2.8 -6.2,-6.2c0,-1.5 0.4,-2.6 1.1,-3.6c6,-9.4 17.5,-16.8 35.4,-16.8c24.7,0 38.3,14.5 38.3,36.2l0,58.6c0,3.6 -3,6.6 -6.6,6.6c-3.6,0 -6.6,-3 -6.6,-6.6l0,-7.7c-5.3,10 -17.7,15.3 -30.5,15.3c-22.6,0 -36.9,-10.9 -36.9,-30.5c0,-18.7 14.3,-30 37.3,-30l30,0l0,-5.8c0,-14.5 -9.6,-23.4 -25.1,-23.4c-11.2,0 -18.1,3.4 -24.7,10.9zm49.9,39.2l0,-8.9l-30,0c-13.8,0 -23.4,5.8 -23.4,18.1c0,11.1 7.7,18.1 24.3,18.1c14.8,0 29.1,-9.2 29.1,-27.3z" class="st0"/>
    <path id="svg_35" d="m812.10465,12.504247c0,-6.2 3,-8.5 8.1,-8.5s8.1,2.3 8.1,8.5c0,5.1 -3,8.1 -8.1,8.1s-8.1,-3 -8.1,-8.1zm14.9,121.4c0,3.8 -3,6.8 -6.8,6.8c-3.8,0 -6.8,-3 -6.8,-6.8l0,-86.5c0,-3.8 3,-6.8 6.8,-6.8c3.8,0 6.8,3 6.8,6.8l0,86.5z" class="st0"/>
   </g>
  </g>
 </g>
</svg>